PathFileType	4	(X/Y/Z)	C:/Users/Rosti/Documents/GitHub/TechForParalysis/Code/Model/04122019 - Marker Volunteer01/Rosti Data/New Session 103.trc	
DataRate	CameraRate	NumFrames	NumMarkers	Units	OrigDataRate	OrigDataStartFrame	OrigNumFrames	
100.00	100.00	10	14	m	100.00	233	620	
Frame#	Time	C7			PX			T8			IJ			SC			AC			AI			TS			AA			GH			LE			ME			US			RS			
		X1	Y1	Z1	X2	Y2	Z2	X3	Y3	Z3	X4	Y4	Z4	X5	Y5	Z5	X6	Y6	Z6	X7	Y7	Z7	X8	Y8	Z8	X9	Y9	Z9	X10	Y10	Z10	X11	Y11	Z11	X12	Y12	Z12	X13	Y13	Z13	X14	Y14	Z14	

233	2.32	0.0271927	0.09891	0.165564	-0.0045859	-0.14122	-0.070619	0.02013902	-0.11628	0.231304	0	0	0	0.0252282	0.00723	0.004652	0.1737937	0.03642	0.069887	0.1074527	0.01782	0.200179	0.1030287	-0.09991	0.232098	0.2225937	-0.00988	0.138923	0.2343937	0.00234	0.097985	0.2782687	-0.28212	0.00646	0.1918807	-0.3098	-0.02114	0.3309197	-0.33601	-0.266577	0.3859887	-0.28935	-0.23686
234	2.33	0.0271548	0.09891	0.165561	-0.0046437	-0.14122	-0.070605	0.02009139	-0.11622	0.231477	0	0	0	0.0252314	0.00726	0.004632	0.173759	0.03648	0.069946	0.1074577	0.01778	0.200164	0.1030382	-0.09989	0.232124	0.222541	-0.00992	0.138912	0.234345	0.00236	0.098025	0.279065	-0.28121	0.005374	0.192679	-0.30938	-0.022283	0.330461	-0.32455	-0.269493	0.384744	-0.2779	-0.238309
235	2.34	0.0271204	0.09891	0.165555	-0.0046875	-0.14125	-0.070567	0.02005892	-0.11618	0.23166	0	0	0	0.0252326	0.00728	0.004611	0.1737224	0.03654	0.07001	0.107467	0.01772	0.200153	0.1030703	-0.09989	0.23214	0.2224934	-0.00997	0.138901	0.2342984	0.00239	0.098065	0.2799834	-0.28027	0.004247	0.1935334	-0.30888	-0.023514	0.3298694	-0.31304	-0.271921	0.3833494	-0.26642	-0.239413
236	2.35	0.0270916	0.09889	0.165542	-0.0047092	-0.14131	-0.070497	0.02004208	-0.11613	0.231841	0	0	0	0.0252364	0.00728	0.004595	0.1736532	0.03656	0.070074	0.1074771	0.01765	0.200146	0.1031183	-0.09989	0.232137	0.2224572	-0.01001	0.138889	0.2342502	0.00244	0.098106	0.2809972	-0.27926	0.00306	0.1944532	-0.30828	-0.024827	0.3290482	-0.30132	-0.273948	0.3818202	-0.25494	-0.240151
237	2.36	0.0270702	0.09888	0.165524	-0.0047093	-0.1414	-0.0704	0.02004156	-0.11609	0.232011	0	0	0	0.0252478	0.00727	0.004586	0.1735294	0.03655	0.07013	0.1074848	0.01759	0.200148	0.1031751	-0.09989	0.232111	0.2224354	-0.01005	0.138879	0.2342014	0.0025	0.098144	0.2820564	-0.27817	0.001798	0.1954534	-0.30759	-0.026204	0.3280184	-0.28947	-0.27564	0.3801544	-0.24347	-0.240539
238	2.37	0.0270571	0.09887	0.165504	-0.0046983	-0.1415	-0.070296	0.020058	-0.11605	0.232159	0	0	0	0.0252673	0.00724	0.00458	0.1733805	0.03652	0.070174	0.107483	0.01754	0.200163	0.1032354	-0.0999	0.23206	0.2224305	-0.01007	0.138868	0.2341565	0.00258	0.098166	0.2831505	-0.27701	0.000469	0.1965335	-0.3068	-0.027635	0.3268075	-0.27762	-0.277021	0.3783365	-0.23206	-0.240603
239	2.38	0.0270521	0.09886	0.16549	-0.004687	-0.14159	-0.070203	0.02009185	-0.11603	0.232282	0	0	0	0.0252873	0.00721	0.004574	0.1732644	0.03652	0.070213	0.1074705	0.01749	0.200194	0.1032969	-0.09992	0.231983	0.2224464	-0.01008	0.138849	0.2341244	0.00266	0.098164	0.2842734	-0.27578	-0.00091	0.1976834	-0.30594	-0.029115	0.3254114	-0.26585	-0.278072	0.3763374	-0.22075	-0.240355
240	2.39	0.0270542	0.09885	0.165482	-0.0046784	-0.14169	-0.070118	0.02014239	-0.11603	0.232376	0	0	0	0.0252996	0.00718	0.004563	0.1732074	0.03656	0.070247	0.1074582	0.01745	0.200234	0.1033609	-0.09996	0.231879	0.2224804	-0.01009	0.13881	0.2341084	0.00275	0.098138	0.2854074	-0.27453	-0.002319	0.1988794	-0.30504	-0.03064	0.3238244	-0.25421	-0.278773	0.3741344	-0.20954	-0.239784
241	2.4	0.0270618	0.09884	0.165479	-0.0046702	-0.14177	-0.070031	0.02020789	-0.11602	0.232443	0	0	0	0.0253029	0.00716	0.004546	0.1731925	0.03666	0.070279	0.1074626	0.01742	0.200271	0.1034334	-0.1	0.231748	0.2225295	-0.01007	0.138751	0.2341075	0.00287	0.098102	0.2865405	-0.27324	-0.003733	0.2000935	-0.3041	-0.03221	0.3220555	-0.24271	-0.279121	0.3717435	-0.19846	-0.238874
242	2.41	0.0270723	0.09883	0.165479	-0.0046604	-0.14188	-0.069936	0.02028623	-0.11603	0.232483	0	0	0	0.0253051	0.00713	0.004524	0.1731861	0.03678	0.070308	0.1074918	0.01737	0.200293	0.1035233	-0.10006	0.231588	0.2225841	-0.01005	0.138675	0.2341181	0.003	0.098062	0.2876761	-0.27196	-0.005141	0.2012961	-0.30316	-0.033823	0.3201181	-0.23132	-0.279108	0.3692121	-0.18758	-0.237623
